<mxfile host="app.diagrams.net" agent="Mozilla/5.0 (Windows NT 10.0; Win64; x64) AppleWebKit/537.36 (KHTML, like Gecko) Chrome/127.0.0.0 Safari/537.36" version="24.7.7">
  <diagram name="Page-1" id="LJGCvz-yP3kOP9v97A6t">
    <mxGraphModel dx="1376" dy="865" grid="1" gridSize="10" guides="1" tooltips="1" connect="1" arrows="1" fold="1" page="1" pageScale="1" pageWidth="850" pageHeight="1100" math="0" shadow="0">
      <root>
        <mxCell id="0" />
        <mxCell id="1" parent="0" />
        <mxCell id="x7hqCWJ2PIZs0wSF1mp3-1" value="START" style="rounded=1;whiteSpace=wrap;html=1;" vertex="1" parent="1">
          <mxGeometry x="360" y="20" width="120" height="60" as="geometry" />
        </mxCell>
        <mxCell id="x7hqCWJ2PIZs0wSF1mp3-8" value="" style="edgeStyle=orthogonalEdgeStyle;rounded=0;orthogonalLoop=1;jettySize=auto;html=1;" edge="1" parent="1" source="x7hqCWJ2PIZs0wSF1mp3-2" target="x7hqCWJ2PIZs0wSF1mp3-7">
          <mxGeometry relative="1" as="geometry" />
        </mxCell>
        <mxCell id="x7hqCWJ2PIZs0wSF1mp3-2" value="User enters letter" style="rounded=1;whiteSpace=wrap;html=1;" vertex="1" parent="1">
          <mxGeometry x="360" y="120" width="120" height="50" as="geometry" />
        </mxCell>
        <mxCell id="x7hqCWJ2PIZs0wSF1mp3-5" value="" style="endArrow=classic;html=1;rounded=0;entryX=0.5;entryY=0;entryDx=0;entryDy=0;exitX=0.5;exitY=1;exitDx=0;exitDy=0;" edge="1" parent="1" source="x7hqCWJ2PIZs0wSF1mp3-1" target="x7hqCWJ2PIZs0wSF1mp3-2">
          <mxGeometry width="50" height="50" relative="1" as="geometry">
            <mxPoint x="400" y="470" as="sourcePoint" />
            <mxPoint x="450" y="420" as="targetPoint" />
          </mxGeometry>
        </mxCell>
        <mxCell id="x7hqCWJ2PIZs0wSF1mp3-10" value="" style="edgeStyle=orthogonalEdgeStyle;rounded=0;orthogonalLoop=1;jettySize=auto;html=1;" edge="1" parent="1" source="x7hqCWJ2PIZs0wSF1mp3-7" target="x7hqCWJ2PIZs0wSF1mp3-9">
          <mxGeometry relative="1" as="geometry" />
        </mxCell>
        <mxCell id="x7hqCWJ2PIZs0wSF1mp3-14" value="" style="edgeStyle=orthogonalEdgeStyle;rounded=0;orthogonalLoop=1;jettySize=auto;html=1;" edge="1" parent="1" source="x7hqCWJ2PIZs0wSF1mp3-7" target="x7hqCWJ2PIZs0wSF1mp3-13">
          <mxGeometry relative="1" as="geometry" />
        </mxCell>
        <mxCell id="x7hqCWJ2PIZs0wSF1mp3-7" value="Letter is in word?" style="rhombus;whiteSpace=wrap;html=1;rounded=1;" vertex="1" parent="1">
          <mxGeometry x="375" y="235" width="90" height="95" as="geometry" />
        </mxCell>
        <mxCell id="x7hqCWJ2PIZs0wSF1mp3-25" value="" style="edgeStyle=orthogonalEdgeStyle;rounded=0;orthogonalLoop=1;jettySize=auto;html=1;" edge="1" parent="1" source="x7hqCWJ2PIZs0wSF1mp3-9" target="x7hqCWJ2PIZs0wSF1mp3-24">
          <mxGeometry relative="1" as="geometry" />
        </mxCell>
        <mxCell id="x7hqCWJ2PIZs0wSF1mp3-9" value="Show letter" style="whiteSpace=wrap;html=1;rounded=1;" vertex="1" parent="1">
          <mxGeometry x="560" y="252.5" width="120" height="60" as="geometry" />
        </mxCell>
        <mxCell id="x7hqCWJ2PIZs0wSF1mp3-18" value="" style="edgeStyle=orthogonalEdgeStyle;rounded=0;orthogonalLoop=1;jettySize=auto;html=1;" edge="1" parent="1" source="x7hqCWJ2PIZs0wSF1mp3-13" target="x7hqCWJ2PIZs0wSF1mp3-17">
          <mxGeometry relative="1" as="geometry" />
        </mxCell>
        <mxCell id="x7hqCWJ2PIZs0wSF1mp3-13" value="Take one life away from player" style="whiteSpace=wrap;html=1;rounded=1;" vertex="1" parent="1">
          <mxGeometry x="200" y="252.5" width="120" height="60" as="geometry" />
        </mxCell>
        <mxCell id="x7hqCWJ2PIZs0wSF1mp3-17" value="Does user have more lives?" style="rhombus;whiteSpace=wrap;html=1;rounded=1;" vertex="1" parent="1">
          <mxGeometry x="205" y="382.5" width="110" height="107.5" as="geometry" />
        </mxCell>
        <mxCell id="x7hqCWJ2PIZs0wSF1mp3-21" value="" style="curved=1;endArrow=classic;html=1;rounded=0;entryX=0;entryY=0.5;entryDx=0;entryDy=0;" edge="1" parent="1" target="x7hqCWJ2PIZs0wSF1mp3-2">
          <mxGeometry width="50" height="50" relative="1" as="geometry">
            <mxPoint x="210" y="438" as="sourcePoint" />
            <mxPoint x="255" y="390" as="targetPoint" />
            <Array as="points">
              <mxPoint x="110" y="320" />
              <mxPoint x="170" y="80" />
            </Array>
          </mxGeometry>
        </mxCell>
        <mxCell id="x7hqCWJ2PIZs0wSF1mp3-24" value="All letters shown?" style="rhombus;whiteSpace=wrap;html=1;rounded=1;" vertex="1" parent="1">
          <mxGeometry x="565" y="382.5" width="110" height="107.5" as="geometry" />
        </mxCell>
        <mxCell id="x7hqCWJ2PIZs0wSF1mp3-26" value="" style="curved=1;endArrow=classic;html=1;rounded=0;exitX=1;exitY=0.5;exitDx=0;exitDy=0;entryX=1;entryY=0.5;entryDx=0;entryDy=0;" edge="1" parent="1" source="x7hqCWJ2PIZs0wSF1mp3-24" target="x7hqCWJ2PIZs0wSF1mp3-2">
          <mxGeometry width="50" height="50" relative="1" as="geometry">
            <mxPoint x="400" y="470" as="sourcePoint" />
            <mxPoint x="450" y="420" as="targetPoint" />
            <Array as="points">
              <mxPoint x="790" y="360" />
              <mxPoint x="810" y="290" />
              <mxPoint x="800" y="200" />
              <mxPoint x="640" y="90" />
            </Array>
          </mxGeometry>
        </mxCell>
        <mxCell id="x7hqCWJ2PIZs0wSF1mp3-28" value="" style="endArrow=classic;html=1;rounded=0;exitX=1;exitY=0.5;exitDx=0;exitDy=0;" edge="1" parent="1" source="x7hqCWJ2PIZs0wSF1mp3-17">
          <mxGeometry width="50" height="50" relative="1" as="geometry">
            <mxPoint x="400" y="470" as="sourcePoint" />
            <mxPoint x="430" y="600" as="targetPoint" />
            <Array as="points">
              <mxPoint x="430" y="436" />
            </Array>
          </mxGeometry>
        </mxCell>
        <mxCell id="x7hqCWJ2PIZs0wSF1mp3-29" value="" style="endArrow=classic;html=1;rounded=0;exitX=1;exitY=0.5;exitDx=0;exitDy=0;" edge="1" parent="1">
          <mxGeometry width="50" height="50" relative="1" as="geometry">
            <mxPoint x="570" y="440" as="sourcePoint" />
            <mxPoint x="450" y="600" as="targetPoint" />
            <Array as="points">
              <mxPoint x="450" y="440" />
            </Array>
          </mxGeometry>
        </mxCell>
        <mxCell id="x7hqCWJ2PIZs0wSF1mp3-30" value="GAME OVER" style="rounded=1;whiteSpace=wrap;html=1;" vertex="1" parent="1">
          <mxGeometry x="390" y="600" width="120" height="60" as="geometry" />
        </mxCell>
      </root>
    </mxGraphModel>
  </diagram>
</mxfile>
